# xmcd CD database file
#
# Track frame offsets:
#	150
#	4805
#	20350
#	43407
#	59692
#	80760
#	112227
#	119602
#	139327
#	151260
#	157240
#	176720
#
# Disc length: 2603 seconds
#
# Revision: 2
# Processed by: cddbd v1.5.2PL0 Copyright (c) Steve Scherf et al.
# Submitted via: CDex 1.70beta3
#
DISCID=b30a290c
DTITLE=UNITED - CORE
DYEAR=2002
DGENRE=J-Loud
TTITLE0=NIGHTMARE CONTINUE...
TTITLE1=BURST DYING MIND
TTITLE2=HATE YOURSELF, HATE YOUR OWN KIND
TTITLE3=HELL BREAKS LOOSE
TTITLE4=PURIFY
TTITLE5=CRUCIFY THE WEAK
TTITLE6=MONSTERS IN THE PIT
TTITLE7=THEY COME WITH THE STORM
TTITLE8=OVERCOME INDECISION
TTITLE9=CORE
TTITLE10=INSANE HOWL
TTITLE11=LOSS AND GAIN
EXTD=YEAR: 2002
EXTT0=
EXTT1=
EXTT2=
EXTT3=
EXTT4=
EXTT5=
EXTT6=
EXTT7=
EXTT8=
EXTT9=
EXTT10=
EXTT11=
PLAYORDER=
